<svg id="visual" viewBox="0 0 900 600" width="900" height="600" xmlns="http://www.w3.org/2000/svg" xmlns:xlink="http://www.w3.org/1999/xlink" version="1.1"><path d="M0 140L21.5 131C43 122 86 104 128.8 99.3C171.7 94.7 214.3 103.3 257.2 113.2C300 123 343 134 385.8 130.3C428.7 126.7 471.3 108.3 514.2 106.3C557 104.3 600 118.7 642.8 128.5C685.7 138.3 728.3 143.7 771.2 144.8C814 146 857 143 878.5 141.5L900 140L900 0L878.5 0C857 0 814 0 771.2 0C728.3 0 685.7 0 642.8 0C600 0 557 0 514.2 0C471.3 0 428.7 0 385.8 0C343 0 300 0 257.2 0C214.3 0 171.7 0 128.8 0C86 0 43 0 21.5 0L0 0Z" fill="#DDAE9A" stroke-linecap="round" stroke-linejoin="miter"></path></svg>